<?xml version="1.0" encoding="utf-8"?>
<!-- Svg Vector Icons : http://www.onlinewebfonts.com/icon -->
<!DOCTYPE svg PUBLIC "-//W3C//DTD SVG 1.1//EN" "http://www.w3.org/Graphics/SVG/1.1/DTD/svg11.dtd">
<svg version="1.1" xmlns="http://www.w3.org/2000/svg" xmlns:xlink="http://www.w3.org/1999/xlink" x="0px" y="0px" viewBox="0 0 256 256" enable-background="new 0 0 256 256" xml:space="preserve">
<metadata> Svg Vector Icons : http://www.onlinewebfonts.com/icon </metadata>
<g><g><path fill="#000000" d="M128,9.9C62.8,9.9,10,62.8,10,128c0,65.2,52.8,118.1,118,118.1c65.2,0,118-52.9,118-118.1C246,62.8,193.2,9.9,128,9.9z M128,230.3c-56.5,0-102.3-45.8-102.3-102.3S71.5,25.6,128,25.6c56.5,0,102.3,45.8,102.3,102.4C230.3,184.5,184.5,230.3,128,230.3z M177,162.1c0,5.4-4.4,9.8-9.8,9.8H88.4c-5.4,0-9.8-4.4-9.8-9.8v-19.4H64.2v24.1c0,10.9,9.8,19.7,20.6,19.7h87.7c10.9,0,19.7-8.8,19.7-19.7v-24.1H177L177,162.1L177,162.1z M162.1,108l-19.2,0.1l-0.1-44.1H113v44.1H93.9l34.1,44.2L162.1,108z"/></g></g>
</svg>